<svg width="15" height="16" viewBox="0 0 15 16" fill="none" xmlns="http://www.w3.org/2000/svg">
<path d="M10.8989 6.33334L10.2044 4.80556L8.67664 4.11111L10.2044 3.41667L10.8989 1.88889L11.5933 3.41667L13.1211 4.11111L11.5933 4.80556L10.8989 6.33334ZM10.8989 14.1111L10.2044 12.5833L8.67664 11.8889L10.2044 11.1944L10.8989 9.66667L11.5933 11.1944L13.1211 11.8889L11.5933 12.5833L10.8989 14.1111ZM5.34331 12.4444L3.95442 9.38889L0.898865 8L3.95442 6.61111L5.34331 3.55556L6.7322 6.61111L9.78775 8L6.7322 9.38889L5.34331 12.4444ZM5.34331 9.75L5.89886 8.55556L7.09331 8L5.89886 7.44445L5.34331 6.25L4.78775 7.44445L3.59331 8L4.78775 8.55556L5.34331 9.75Z" fill="#2B5869"/>
</svg>
